<svg xmlns="http://www.w3.org/2000/svg" viewBox="3265.89 285.206 510.002 510.278">
  <defs>
    <style>
      .cls-1, .cls-2, .cls-3 {
        fill: none;
      }

      .cls-1 {
        stroke: #707070;
      }

      .cls-2 {
        stroke: #2caef9;
      }

      .cls-2, .cls-3 {
        stroke-width: 10px;
      }

      .cls-3 {
        stroke: #fff;
      }
    </style>
  </defs>
  <g id="Abstract" transform="translate(2024 50)">
    <path id="Path_61" data-name="Path 61" class="cls-1" d="M1048.174,1325.4" transform="translate(537.134 -1031.574)"/>
    <path id="Path_62" data-name="Path 62" class="cls-2" d="M973.411,1296.214h46.927s-60.464-74.134-208.465-36.141" transform="translate(611.897 -1008.876)"/>
    <path id="Path_63" data-name="Path 63" class="cls-3" d="M990.088,1417.807h166.953s28.878,63.941,25.268,63.941h-45.122" transform="translate(555.511 -1059.115)"/>
    <path id="Path_64" data-name="Path 64" class="cls-3" d="M936.642,1316.158H838.275" transform="translate(603.543 -1028.82)"/>
    <path id="Path_65" data-name="Path 65" class="cls-2" d="M666.66,1316.158h76.708" transform="translate(657.84 -1028.82)"/>
    <path id="Path_66" data-name="Path 66" class="cls-2" d="M769.717,1417.807H589.227s-36.1,47.261-36.1,134.369" transform="translate(693.76 -1059.115)"/>
    <path id="Path_67" data-name="Path 67" class="cls-2" d="M625.34,1708.233H570.291s20.756,63.014,27.976,63.941,135.367,0,135.367,0" transform="translate(688.33 -1145.671)"/>
    <path id="Path_68" data-name="Path 68" class="cls-2" d="M1032.332,1800.566h77.61s97.158-61.806,94.757-208.5" transform="translate(542.146 -1111.049)"/>
    <path id="Path_69" data-name="Path 69" class="cls-2" d="M942.855,1889.089H877.878" transform="translate(591.013 -1199.572)"/>
    <path id="Path_70" data-name="Path 70" class="cls-3" d="M780.115,1889.089H694.382s75.806,72.281,216.587,44.481" transform="translate(649.069 -1199.572)"/>
    <path id="Path_71" data-name="Path 71" class="cls-3" d="M925.4,1799.907h157.026" transform="translate(575.977 -1172.993)"/>
    <path id="Path_72" data-name="Path 72" class="cls-2" d="M782.348,1533.977l-43.827,45,43.827,45" transform="translate(635.104 -1093.737)"/>
    <path id="Path_73" data-name="Path 73" class="cls-2" d="M1048.174,1533.977l43.79,44.966-43.79,44.966" transform="translate(537.134 -1093.737)"/>
    <path id="Path_74" data-name="Path 74" class="cls-3" d="M946.2,1487.773l-57.757,159.389" transform="translate(587.672 -1079.967)"/>
  </g>
</svg>
